<?xml version="1.0" standalone="no"?>
<!DOCTYPE svg PUBLIC "-//W3C//DTD SVG 20010904//EN"
 "http://www.w3.org/TR/2001/REC-SVG-20010904/DTD/svg10.dtd">
<svg version="1.0" xmlns="http://www.w3.org/2000/svg"
 width="16.000000pt" height="16.000000pt" viewBox="0 0 16.000000 16.000000"
 preserveAspectRatio="xMidYMid meet">
<metadata>
Created by potrace 1.11, written by Peter Selinger 2001-2013
</metadata>
<g transform="translate(0.000000,16.000000) scale(0.006154,-0.006154)"
fill="#000000" stroke="none">
<path d="M1203 2527 c-2 -4 -8 -5 -13 -2 -5 3 -18 1 -28 -4 -13 -7 -22 -7 -30
1 -8 8 -12 8 -12 2 0 -6 -6 -11 -12 -11 -17 -1 -79 -12 -100 -19 -25 -7 -62
-16 -75 -16 -7 -1 -13 -5 -13 -10 0 -4 -8 -8 -17 -8 -10 0 -42 -11 -70 -25
-29 -13 -53 -22 -53 -19 0 3 -7 -2 -16 -10 -8 -9 -21 -16 -28 -16 -7 0 -25 -9
-40 -21 -14 -11 -26 -17 -26 -12 0 4 -4 3 -8 -2 -4 -6 -32 -27 -62 -47 -122
-81 -236 -199 -339 -350 -17 -27 -28 -48 -24 -48 4 0 3 -4 -3 -8 -14 -9 -79
-144 -76 -156 2 -5 -1 -12 -5 -15 -9 -6 -32 -73 -41 -116 -6 -34 -10 -50 -12
-50 -2 0 -9 -35 -14 -75 -3 -19 -5 -35 -6 -35 -1 0 -3 -12 -4 -26 -2 -14 -6
-32 -11 -39 -5 -8 -4 -11 2 -7 5 3 10 0 10 -8 0 -8 -4 -12 -9 -9 -12 8 -10
-10 4 -24 9 -9 9 -12 0 -12 -8 0 -9 -7 -2 -26 7 -16 7 -23 0 -19 -6 3 -10 2
-10 -4 0 -5 4 -12 10 -16 6 -4 6 -15 0 -30 -6 -16 -6 -25 0 -25 6 0 10 -5 10
-11 0 -5 -5 -7 -11 -3 -7 4 -7 -1 1 -16 6 -12 9 -28 6 -35 -2 -7 -2 -16 2 -19
3 -4 7 -17 9 -29 3 -25 15 -86 20 -104 1 -7 4 -19 6 -25 18 -76 88 -242 125
-298 9 -14 17 -27 17 -30 0 -3 27 -41 60 -84 62 -83 155 -180 215 -225 19 -14
37 -28 40 -32 9 -10 99 -69 105 -69 4 0 19 -9 35 -20 15 -11 30 -17 34 -13 3
3 6 1 6 -6 0 -7 4 -9 10 -6 5 3 10 1 10 -4 0 -6 6 -11 13 -11 7 0 30 -9 52
-20 22 -11 46 -20 55 -20 9 0 21 -5 28 -12 7 -7 12 -8 12 -4 0 5 7 3 15 -4 9
-7 18 -10 22 -7 3 4 11 3 17 -2 6 -5 29 -12 51 -15 23 -4 52 -9 65 -12 14 -4
37 -6 53 -6 15 0 27 -5 27 -10 0 -7 5 -6 13 1 8 6 17 8 20 4 11 -10 137 -10
130 0 -3 5 5 3 18 -3 17 -10 24 -10 27 -2 2 8 9 9 21 2 10 -5 22 -6 26 -2 3 4
19 8 33 8 15 1 27 3 27 4 0 1 11 4 25 5 28 4 65 13 65 15 0 2 43 10 68 12 9 1
17 6 17 10 0 4 3 7 8 6 9 -3 84 22 97 32 6 5 14 8 18 9 13 0 122 54 128 64 3
5 10 9 15 9 5 0 45 25 89 56 81 56 265 234 265 255 0 7 12 23 25 36 14 13 25
29 25 37 0 8 4 14 10 14 5 0 12 11 16 25 3 14 10 25 14 25 7 0 16 22 18 44 0
5 4 12 9 15 18 12 82 174 98 249 3 12 7 32 10 44 3 13 6 35 7 50 1 16 5 28 9
28 4 0 6 8 4 17 -1 10 2 28 6 41 5 14 5 22 -2 22 -6 0 -7 6 -3 12 11 18 12 48
2 54 -4 3 -5 11 -1 17 12 19 11 57 -1 57 -7 0 -7 3 -1 8 11 8 15 72 5 72 -3 0
-6 10 -7 23 -2 56 -8 97 -14 97 -4 0 -6 8 -4 18 1 9 -2 28 -7 42 -5 14 -11 32
-13 41 -6 29 -36 113 -61 169 -1 3 -5 15 -9 28 -4 12 -11 22 -16 22 -5 0 -8 3
-7 8 3 10 -32 75 -46 84 -6 4 -7 8 -3 8 5 0 -2 13 -15 29 -12 15 -30 38 -38
51 -58 87 -248 269 -264 253 -3 -3 -6 0 -6 8 0 8 -17 23 -38 35 -20 11 -65 37
-100 57 -34 20 -63 36 -65 36 -1 0 -15 5 -32 11 -75 30 -155 58 -155 55 0 -2
-15 1 -32 7 -34 10 -89 20 -120 21 -10 1 -18 5 -18 9 0 4 -7 5 -15 2 -8 -3
-20 -2 -27 2 -17 11 -39 14 -34 5 3 -4 -4 -7 -14 -7 -10 0 -16 4 -14 8 3 4 0
8 -5 8 -6 0 -11 -5 -11 -12 0 -9 -3 -9 -12 0 -16 16 -31 15 -22 0 5 -9 2 -9
-9 1 -11 9 -17 10 -17 2 0 -6 -5 -11 -11 -11 -5 0 -8 4 -5 8 3 5 -11 8 -30 8
-20 -1 -38 -4 -41 -9z"/>
</g>
</svg>
